<svg width="298" height="24" viewBox="0 0 298 24" fill="none" xmlns="http://www.w3.org/2000/svg">
<path d="M6.48307 15.6961V16.8H1.07934V15.6961H6.48307ZM1.35268 6.5625V16.8H0V6.5625H1.35268ZM5.76818 10.9641V12.068H1.07934V10.9641H5.76818ZM6.41298 6.5625V7.67344H1.07934V6.5625H6.41298Z" fill="white"/>
<path d="M8.838 9.19219L10.4991 11.9625L12.1812 9.19219H13.7021L11.221 12.9469L13.7792 16.8H12.2793L10.5271 13.9453L8.77492 16.8H7.26805L9.81922 12.9469L7.34514 9.19219H8.838Z" fill="white"/>
<path d="M17.9774 15.8719C18.2858 15.8719 18.5708 15.8086 18.8324 15.682C19.0941 15.5555 19.309 15.382 19.4772 15.1617C19.6455 14.9367 19.7412 14.6813 19.7646 14.3953H20.9981C20.9748 14.8453 20.8229 15.2648 20.5426 15.6539C20.2669 16.0383 19.9048 16.35 19.4562 16.5891C19.0077 16.8234 18.5147 16.9406 17.9774 16.9406C17.4073 16.9406 16.9097 16.8398 16.4845 16.6383C16.064 16.4367 15.7136 16.1602 15.4332 15.8086C15.1575 15.457 14.9496 15.0539 14.8094 14.5992C14.6739 14.1398 14.6062 13.6547 14.6062 13.1438V12.8484C14.6062 12.3375 14.6739 11.8547 14.8094 11.4C14.9496 10.9406 15.1575 10.5352 15.4332 10.1836C15.7136 9.83203 16.064 9.55547 16.4845 9.35391C16.9097 9.15234 17.4073 9.05156 17.9774 9.05156C18.5708 9.05156 19.0894 9.17344 19.5333 9.41719C19.9772 9.65625 20.3253 9.98438 20.5776 10.4016C20.8346 10.8141 20.9748 11.2828 20.9981 11.8078H19.7646C19.7412 11.4938 19.6525 11.2102 19.4983 10.957C19.3487 10.7039 19.1432 10.5023 18.8815 10.3523C18.6245 10.1977 18.3231 10.1203 17.9774 10.1203C17.5802 10.1203 17.2461 10.2 16.9751 10.3594C16.7088 10.5141 16.4962 10.725 16.3373 10.9922C16.1831 11.2547 16.071 11.5477 16.0009 11.8711C15.9355 12.1898 15.9028 12.5156 15.9028 12.8484V13.1438C15.9028 13.4766 15.9355 13.8047 16.0009 14.1281C16.0663 14.4516 16.1761 14.7445 16.3303 15.007C16.4892 15.2695 16.7018 15.4805 16.9681 15.6398C17.2391 15.7945 17.5755 15.8719 17.9774 15.8719Z" fill="white"/>
<path d="M25.6029 16.9406C25.0749 16.9406 24.5959 16.8516 24.1661 16.6734C23.7409 16.4906 23.3741 16.2352 23.0657 15.907C22.762 15.5789 22.5284 15.1898 22.3648 14.7398C22.2013 14.2898 22.1195 13.7977 22.1195 13.2633V12.968C22.1195 12.3492 22.2106 11.7984 22.3929 11.3156C22.5751 10.8281 22.8227 10.4156 23.1358 10.0781C23.4489 9.74063 23.804 9.48516 24.2011 9.31172C24.5983 9.13828 25.0095 9.05156 25.4347 9.05156C25.9767 9.05156 26.4439 9.14531 26.8364 9.33281C27.2336 9.52031 27.5583 9.78281 27.8106 10.1203C28.0629 10.4531 28.2498 10.8469 28.3713 11.3016C28.4928 11.7516 28.5535 12.2438 28.5535 12.7781V13.3617H22.8905V12.3H27.2569V12.2016C27.2382 11.8641 27.1681 11.5359 27.0467 11.2172C26.9299 10.8984 26.743 10.6359 26.486 10.4297C26.229 10.2234 25.8785 10.1203 25.4347 10.1203C25.1403 10.1203 24.8693 10.1836 24.6216 10.3102C24.374 10.432 24.1614 10.6148 23.9839 10.8586C23.8063 11.1023 23.6685 11.4 23.5703 11.7516C23.4722 12.1031 23.4232 12.5086 23.4232 12.968V13.2633C23.4232 13.6242 23.4722 13.9641 23.5703 14.2828C23.6731 14.5969 23.8203 14.8734 24.0119 15.1125C24.2081 15.3516 24.4441 15.5391 24.7198 15.675C25.0001 15.8109 25.3178 15.8789 25.673 15.8789C26.1309 15.8789 26.5187 15.7852 26.8364 15.5977C27.1541 15.4102 27.4321 15.1594 27.6704 14.8453L28.4554 15.4711C28.2919 15.7195 28.084 15.9563 27.8316 16.1813C27.5793 16.4062 27.2686 16.5891 26.8995 16.7297C26.535 16.8703 26.1028 16.9406 25.6029 16.9406Z" fill="white"/>
<path d="M31.4762 6V16.8H30.1726V6H31.4762Z" fill="white"/>
<path d="M34.9665 6V16.8H33.6629V6H34.9665Z" fill="white"/>
<path d="M40.195 16.9406C39.667 16.9406 39.1881 16.8516 38.7582 16.6734C38.333 16.4906 37.9663 16.2352 37.6579 15.907C37.3542 15.5789 37.1205 15.1898 36.957 14.7398C36.7935 14.2898 36.7117 13.7977 36.7117 13.2633V12.968C36.7117 12.3492 36.8028 11.7984 36.985 11.3156C37.1673 10.8281 37.4149 10.4156 37.728 10.0781C38.041 9.74063 38.3961 9.48516 38.7933 9.31172C39.1904 9.13828 39.6016 9.05156 40.0268 9.05156C40.5688 9.05156 41.0361 9.14531 41.4286 9.33281C41.8257 9.52031 42.1505 9.78281 42.4028 10.1203C42.6551 10.4531 42.842 10.8469 42.9635 11.3016C43.085 11.7516 43.1457 12.2438 43.1457 12.7781V13.3617H37.4827V12.3H41.8491V12.2016C41.8304 11.8641 41.7603 11.5359 41.6388 11.2172C41.522 10.8984 41.3351 10.6359 41.0781 10.4297C40.8211 10.2234 40.4707 10.1203 40.0268 10.1203C39.7325 10.1203 39.4614 10.1836 39.2138 10.3102C38.9662 10.432 38.7536 10.6148 38.576 10.8586C38.3985 11.1023 38.2606 11.4 38.1625 11.7516C38.0644 12.1031 38.0153 12.5086 38.0153 12.968V13.2633C38.0153 13.6242 38.0644 13.9641 38.1625 14.2828C38.2653 14.5969 38.4125 14.8734 38.604 15.1125C38.8003 15.3516 39.0363 15.5391 39.3119 15.675C39.5923 15.8109 39.91 15.8789 40.2651 15.8789C40.723 15.8789 41.1108 15.7852 41.4286 15.5977C41.7463 15.4102 42.0243 15.1594 42.2626 14.8453L43.0476 15.4711C42.884 15.7195 42.6761 15.9563 42.4238 16.1813C42.1715 16.4062 41.8608 16.5891 41.4916 16.7297C41.1272 16.8703 40.695 16.9406 40.195 16.9406Z" fill="white"/>
<path d="M45.9562 10.8164V16.8H44.6596V9.19219H45.8861L45.9562 10.8164ZM45.6478 12.7078L45.1081 12.6867C45.1128 12.1664 45.1899 11.6859 45.3394 11.2453C45.4889 10.8 45.6992 10.4133 45.9702 10.0852C46.2412 9.75703 46.5636 9.50391 46.9374 9.32578C47.3159 9.14297 47.7341 9.05156 48.192 9.05156C48.5658 9.05156 48.9022 9.10313 49.2012 9.20625C49.5003 9.30469 49.7549 9.46406 49.9652 9.68438C50.1801 9.90469 50.3437 10.1906 50.4558 10.5422C50.5679 10.8891 50.624 11.3133 50.624 11.8148V16.8H49.3204V11.8008C49.3204 11.4023 49.262 11.0836 49.1452 10.8445C49.0284 10.6008 48.8578 10.425 48.6335 10.3172C48.4093 10.2047 48.1336 10.1484 47.8065 10.1484C47.4841 10.1484 47.1897 10.2164 46.9234 10.3523C46.6617 10.4883 46.4351 10.6758 46.2436 10.9148C46.0567 11.1539 45.9095 11.4281 45.802 11.7375C45.6992 12.0422 45.6478 12.3656 45.6478 12.7078Z" fill="white"/>
<path d="M55.7684 9.19219V10.1906H51.6683V9.19219H55.7684ZM53.056 7.34297H54.3526V14.9156C54.3526 15.1734 54.3924 15.368 54.4718 15.4992C54.5512 15.6305 54.654 15.7172 54.7802 15.7594C54.9063 15.8016 55.0418 15.8227 55.1867 15.8227C55.2942 15.8227 55.4063 15.8133 55.5231 15.7945C55.6446 15.7711 55.7357 15.7523 55.7964 15.7383L55.8035 16.8C55.7007 16.8328 55.5652 16.8633 55.3969 16.8914C55.2334 16.9242 55.0348 16.9406 54.8012 16.9406C54.4835 16.9406 54.1914 16.8773 53.9251 16.7508C53.6588 16.6242 53.4462 16.4133 53.2873 16.118C53.1331 15.818 53.056 15.4148 53.056 14.9086V7.34297Z" fill="white"/>
<path d="M96.9003 0H72.9772V24H96.9003V0Z" fill="#219653"/>
<path d="M122.817 0H98.8939V24H122.817V0Z" fill="#219653"/>
<path d="M148.734 0H124.811V24H148.734V0Z" fill="#219653"/>
<path d="M174.65 0H150.727V24H174.65V0Z" fill="#219653"/>
<path d="M200.567 0H176.644V24H200.567V0Z" fill="#219653"/>
<path d="M84.9384 16.1748L88.5767 15.2498L90.0968 19.9498L84.9384 16.1748ZM93.3115 10.0998H86.9071L84.9384 4.04984L82.9697 10.0998H76.5653L81.7486 13.8498L79.78 19.8998L84.9633 16.1498L88.1531 13.8498L93.3115 10.0998Z" fill="white"/>
<path d="M110.855 16.1748L114.493 15.2498L116.014 19.9498L110.855 16.1748ZM119.228 10.0998H112.824L110.855 4.04984L108.886 10.0998H102.482L107.665 13.8498L105.697 19.8998L110.88 16.1498L114.07 13.8498L119.228 10.0998Z" fill="white"/>
<path d="M136.772 16.1748L140.41 15.2498L141.93 19.9498L136.772 16.1748ZM145.145 10.0998H138.74L136.772 4.04984L134.803 10.0998H128.399L133.582 13.8498L131.613 19.8998L136.797 16.1498L139.986 13.8498L145.145 10.0998Z" fill="white"/>
<path d="M162.688 16.1748L166.327 15.2498L167.847 19.9498L162.688 16.1748ZM171.062 10.0998H164.657L162.688 4.04984L160.72 10.0998H154.315L159.499 13.8498L157.53 19.8998L162.713 16.1498L165.903 13.8498L171.062 10.0998Z" fill="white"/>
<path d="M188.605 16.1748L192.243 15.2498L193.764 19.9498L188.605 16.1748ZM196.978 10.0998H190.574L188.605 4.04984L186.637 10.0998H180.232L185.415 13.8498L183.447 19.8998L188.63 16.1498L191.82 13.8498L196.978 10.0998Z" fill="white"/>
<path d="M224.49 16.175L228.128 15.25L229.649 19.95L224.49 16.175ZM232.863 10.1H226.459L224.49 4.05L222.521 10.1H216.117L221.3 13.85L219.332 19.9L224.515 16.15L227.705 13.85L232.863 10.1Z" fill="#219653"/>
<path d="M242.603 6.5625V16.8H241.271V6.5625H242.603ZM245.883 6.5625V7.67344H237.998V6.5625H245.883Z" fill="white"/>
<path d="M247.965 10.3875V16.8H246.668V9.19219H247.93L247.965 10.3875ZM250.334 9.15L250.327 10.3594C250.219 10.3359 250.116 10.3219 250.018 10.3172C249.925 10.3078 249.817 10.3031 249.696 10.3031C249.397 10.3031 249.133 10.35 248.904 10.4438C248.675 10.5375 248.481 10.6688 248.322 10.8375C248.163 11.0063 248.037 11.2078 247.944 11.4422C247.855 11.6719 247.797 11.925 247.768 12.2016L247.404 12.4125C247.404 11.9531 247.448 11.5219 247.537 11.1188C247.631 10.7156 247.773 10.3594 247.965 10.05C248.156 9.73594 248.399 9.49219 248.694 9.31875C248.993 9.14062 249.348 9.05156 249.759 9.05156C249.852 9.05156 249.96 9.06328 250.081 9.08672C250.203 9.10547 250.287 9.12656 250.334 9.15Z" fill="white"/>
<path d="M256.172 15.0422V9.19219H257.476V16.8H256.235L256.172 15.0422ZM256.417 13.4391L256.957 13.425C256.957 13.9313 256.903 14.4 256.796 14.8313C256.693 15.2578 256.525 15.6281 256.291 15.9422C256.057 16.2563 255.751 16.5023 255.373 16.6805C254.994 16.8539 254.534 16.9406 253.992 16.9406C253.623 16.9406 253.284 16.8867 252.976 16.7789C252.672 16.6711 252.411 16.5047 252.191 16.2797C251.971 16.0547 251.801 15.7617 251.679 15.4008C251.563 15.0398 251.504 14.6063 251.504 14.1V9.19219H252.801V14.1141C252.801 14.4563 252.838 14.7398 252.913 14.9648C252.992 15.1852 253.097 15.3609 253.228 15.4922C253.364 15.6188 253.513 15.7078 253.677 15.7594C253.845 15.8109 254.018 15.8367 254.195 15.8367C254.747 15.8367 255.184 15.7313 255.506 15.5203C255.829 15.3047 256.06 15.0164 256.2 14.6555C256.345 14.2898 256.417 13.8844 256.417 13.4391Z" fill="white"/>
<path d="M263.868 14.782C263.868 14.5945 263.825 14.4211 263.741 14.2617C263.662 14.0977 263.496 13.95 263.244 13.8188C262.996 13.6828 262.622 13.5656 262.122 13.4672C261.702 13.3781 261.321 13.2727 260.98 13.1508C260.643 13.0289 260.356 12.8813 260.118 12.7078C259.884 12.5344 259.704 12.3305 259.578 12.0961C259.452 11.8617 259.389 11.5875 259.389 11.2734C259.389 10.9734 259.454 10.6898 259.585 10.4227C259.721 10.1555 259.91 9.91875 260.153 9.7125C260.401 9.50625 260.697 9.34453 261.043 9.22734C261.389 9.11016 261.774 9.05156 262.199 9.05156C262.807 9.05156 263.326 9.15938 263.755 9.375C264.185 9.59063 264.515 9.87891 264.744 10.2398C264.973 10.5961 265.087 10.9922 265.087 11.4281H263.79C263.79 11.2172 263.727 11.0133 263.601 10.8164C263.48 10.6148 263.3 10.4484 263.062 10.3172C262.828 10.1859 262.541 10.1203 262.199 10.1203C261.84 10.1203 261.548 10.1766 261.323 10.2891C261.104 10.3969 260.943 10.5352 260.84 10.7039C260.742 10.8727 260.693 11.0508 260.693 11.2383C260.693 11.3789 260.716 11.5055 260.763 11.618C260.814 11.7258 260.903 11.8266 261.029 11.9203C261.155 12.0094 261.333 12.0938 261.562 12.1734C261.791 12.2531 262.083 12.3328 262.438 12.4125C263.059 12.5531 263.571 12.7219 263.973 12.9188C264.374 13.1156 264.674 13.357 264.87 13.643C265.066 13.9289 265.164 14.2758 265.164 14.6836C265.164 15.0164 265.094 15.3211 264.954 15.5977C264.818 15.8742 264.62 16.1133 264.358 16.3148C264.101 16.5117 263.793 16.6664 263.433 16.7789C263.078 16.8867 262.678 16.9406 262.234 16.9406C261.566 16.9406 261.001 16.8211 260.538 16.582C260.076 16.343 259.725 16.0336 259.487 15.6539C259.249 15.2742 259.13 14.8734 259.13 14.4516H260.433C260.452 14.8078 260.555 15.0914 260.742 15.3023C260.929 15.5086 261.157 15.6563 261.428 15.7453C261.699 15.8297 261.968 15.8719 262.234 15.8719C262.59 15.8719 262.886 15.825 263.125 15.7313C263.368 15.6375 263.552 15.5086 263.678 15.3445C263.804 15.1805 263.868 14.993 263.868 14.782Z" fill="white"/>
<path d="M270.042 9.19219V10.1906H265.942V9.19219H270.042ZM267.33 7.34297H268.626V14.9156C268.626 15.1734 268.666 15.368 268.746 15.4992C268.825 15.6305 268.928 15.7172 269.054 15.7594C269.18 15.8016 269.316 15.8227 269.46 15.8227C269.568 15.8227 269.68 15.8133 269.797 15.7945C269.918 15.7711 270.009 15.7523 270.07 15.7383L270.077 16.8C269.974 16.8328 269.839 16.8633 269.671 16.8914C269.507 16.9242 269.309 16.9406 269.075 16.9406C268.757 16.9406 268.465 16.8773 268.199 16.7508C267.933 16.6242 267.72 16.4133 267.561 16.118C267.407 15.818 267.33 15.4148 267.33 14.9086V7.34297Z" fill="white"/>
<path d="M272.86 10.6547V19.725H271.556V9.19219H272.748L272.86 10.6547ZM277.969 12.9328V13.0805C277.969 13.6336 277.904 14.1469 277.773 14.6203C277.642 15.0891 277.45 15.4969 277.198 15.8438C276.95 16.1906 276.644 16.4602 276.28 16.6523C275.915 16.8445 275.497 16.9406 275.025 16.9406C274.544 16.9406 274.119 16.8609 273.75 16.7016C273.381 16.5422 273.068 16.3102 272.811 16.0055C272.554 15.7008 272.348 15.3352 272.194 14.9086C272.044 14.482 271.942 14.0016 271.885 13.4672V12.6797C271.942 12.1172 272.047 11.6133 272.201 11.168C272.355 10.7227 272.558 10.343 272.811 10.0289C273.068 9.71016 273.378 9.46875 273.743 9.30469C274.107 9.13594 274.528 9.05156 275.004 9.05156C275.481 9.05156 275.904 9.14531 276.273 9.33281C276.642 9.51562 276.953 9.77813 277.205 10.1203C277.457 10.4625 277.647 10.8727 277.773 11.3508C277.904 11.8242 277.969 12.3516 277.969 12.9328ZM276.665 13.0805V12.9328C276.665 12.5531 276.626 12.1969 276.546 11.8641C276.467 11.5266 276.343 11.2313 276.175 10.9781C276.011 10.7203 275.801 10.5188 275.544 10.3734C275.287 10.2234 274.981 10.1484 274.626 10.1484C274.299 10.1484 274.014 10.2047 273.771 10.3172C273.533 10.4297 273.329 10.582 273.161 10.7742C272.993 10.9617 272.855 11.1773 272.748 11.4211C272.645 11.6602 272.568 11.9086 272.516 12.1664V13.9875C272.61 14.3156 272.741 14.625 272.909 14.9156C273.077 15.2016 273.301 15.4336 273.582 15.6117C273.862 15.7852 274.215 15.8719 274.64 15.8719C274.99 15.8719 275.292 15.7992 275.544 15.6539C275.801 15.5039 276.011 15.3 276.175 15.0422C276.343 14.7844 276.467 14.4891 276.546 14.1563C276.626 13.8188 276.665 13.4602 276.665 13.0805Z" fill="white"/>
<path d="M281.032 9.19219V16.8H279.728V9.19219H281.032ZM279.63 7.17422C279.63 6.96328 279.693 6.78516 279.819 6.63984C279.95 6.49453 280.142 6.42188 280.394 6.42188C280.642 6.42188 280.831 6.49453 280.962 6.63984C281.097 6.78516 281.165 6.96328 281.165 7.17422C281.165 7.37578 281.097 7.54922 280.962 7.69453C280.831 7.83516 280.642 7.90547 280.394 7.90547C280.142 7.90547 279.95 7.83516 279.819 7.69453C279.693 7.54922 279.63 7.37578 279.63 7.17422Z" fill="white"/>
<path d="M284.522 6V16.8H283.219V6H284.522Z" fill="white"/>
<path d="M286.26 13.0805V12.9188C286.26 12.3703 286.34 11.8617 286.499 11.393C286.658 10.9195 286.887 10.5094 287.186 10.1625C287.485 9.81094 287.847 9.53906 288.272 9.34688C288.697 9.15 289.174 9.05156 289.702 9.05156C290.234 9.05156 290.713 9.15 291.138 9.34688C291.568 9.53906 291.933 9.81094 292.232 10.1625C292.536 10.5094 292.767 10.9195 292.926 11.393C293.085 11.8617 293.164 12.3703 293.164 12.9188V13.0805C293.164 13.6289 293.085 14.1375 292.926 14.6063C292.767 15.075 292.536 15.4852 292.232 15.8367C291.933 16.1836 291.571 16.4555 291.145 16.6523C290.725 16.8445 290.248 16.9406 289.716 16.9406C289.183 16.9406 288.704 16.8445 288.279 16.6523C287.854 16.4555 287.489 16.1836 287.186 15.8367C286.887 15.4852 286.658 15.075 286.499 14.6063C286.34 14.1375 286.26 13.6289 286.26 13.0805ZM287.557 12.9188V13.0805C287.557 13.4602 287.601 13.8188 287.69 14.1563C287.779 14.4891 287.912 14.7844 288.09 15.0422C288.272 15.3 288.499 15.5039 288.77 15.6539C289.04 15.7992 289.356 15.8719 289.716 15.8719C290.071 15.8719 290.382 15.7992 290.648 15.6539C290.919 15.5039 291.143 15.3 291.321 15.0422C291.498 14.7844 291.631 14.4891 291.72 14.1563C291.814 13.8188 291.86 13.4602 291.86 13.0805V12.9188C291.86 12.5438 291.814 12.1898 291.72 11.857C291.631 11.5195 291.496 11.2219 291.314 10.9641C291.136 10.7016 290.912 10.4953 290.641 10.3453C290.375 10.1953 290.061 10.1203 289.702 10.1203C289.347 10.1203 289.034 10.1953 288.763 10.3453C288.496 10.4953 288.272 10.7016 288.09 10.9641C287.912 11.2219 287.779 11.5195 287.69 11.857C287.601 12.1898 287.557 12.5438 287.557 12.9188Z" fill="white"/>
<path d="M297.965 9.19219V10.1906H293.865V9.19219H297.965ZM295.253 7.34297H296.549V14.9156C296.549 15.1734 296.589 15.368 296.668 15.4992C296.748 15.6305 296.851 15.7172 296.977 15.7594C297.103 15.8016 297.238 15.8227 297.383 15.8227C297.491 15.8227 297.603 15.8133 297.72 15.7945C297.841 15.7711 297.932 15.7523 297.993 15.7383L298 16.8C297.897 16.8328 297.762 16.8633 297.593 16.8914C297.43 16.9242 297.231 16.9406 296.998 16.9406C296.68 16.9406 296.388 16.8773 296.122 16.7508C295.855 16.6242 295.643 16.4133 295.484 16.118C295.33 15.818 295.253 15.4148 295.253 14.9086V7.34297Z" fill="white"/>
</svg>
